<?xml version="1.0" encoding="UTF-8" standalone="no"?>
<!-- Created with Inkscape (http://www.inkscape.org/) -->

<svg
   width="480"
   height="480"
   viewBox="0 0 127 127"
   version="1.1"
   id="svg1"
   xml:space="preserve"
   inkscape:version="1.3.2 (091e20ef0f, 2023-11-25)"
   sodipodi:docname="favicon.svg"
   xmlns:inkscape="http://www.inkscape.org/namespaces/inkscape"
   xmlns:sodipodi="http://sodipodi.sourceforge.net/DTD/sodipodi-0.dtd"
   xmlns="http://www.w3.org/2000/svg"
   xmlns:svg="http://www.w3.org/2000/svg"><sodipodi:namedview
     id="namedview1"
     pagecolor="#505050"
     bordercolor="#ffffff"
     borderopacity="1"
     inkscape:showpageshadow="0"
     inkscape:pageopacity="0"
     inkscape:pagecheckerboard="1"
     inkscape:deskcolor="#d1d1d1"
     inkscape:document-units="mm"
     inkscape:zoom="0.39286616"
     inkscape:cx="447.98972"
     inkscape:cy="323.26531"
     inkscape:window-width="1876"
     inkscape:window-height="1036"
     inkscape:window-x="0"
     inkscape:window-y="0"
     inkscape:window-maximized="1"
     inkscape:current-layer="layer1" /><defs
     id="defs1"><clipPath
       clipPathUnits="userSpaceOnUse"
       id="clipPath12"><rect
         style="fill:#800000;stroke-width:1.165;stroke-linecap:round;stroke-linejoin:round"
         id="rect13"
         width="60.09399"
         height="44.637096"
         x="118.76212"
         y="129.73888" /></clipPath></defs><g
     inkscape:groupmode="layer"
     id="layer3"
     inkscape:label="Layer 2"><rect
       style="fill:#e6e6e6;stroke-width:1.17217;stroke-linecap:round;stroke-linejoin:round"
       id="rect33"
       width="128"
       height="128"
       x="0"
       y="0"
       ry="0.2898536" /></g><g
     inkscape:label="Layer 1"
     inkscape:groupmode="layer"
     id="layer1"><path
       style="fill:#800000;stroke:#ffcc00;stroke-width:1.40032"
       d="m 69.309984,48.285679 6.010803,-8.751672 28.731423,49.742987 12.09452,0.430759 C 103.31097,65.250413 89.239514,41.109753 75.136827,17.329969 52.500319,57.12258 45.671145,68.804498 39.762902,78.524313 c -3.655164,-0.02352 -7.309803,0.0279 -10.964619,0.06884 9.112901,-17.048319 19.872653,-33.206771 28.742601,-50.378479 -2.026931,-3.584765 -6.132891,-10.724495 -6.132891,-10.724495 0,0 -24.473051,42.484578 -40.563421,72.157594 h 69.704375 c 1.953197,3.110382 3.915062,6.214872 5.925162,9.28889 -19.503754,0.0952 -39.007239,0.23532 -58.510748,0.36902 -1.920369,3.462157 -5.834499,10.345047 -5.834499,10.345047 0,0 54.768589,0.0193 82.152838,0.0193 -19.231266,-34.520737 1.21206,2.2982 -34.971716,-61.384349 z M 52.459851,78.484994 63.486151,59.085666 74.41741,78.496825 Z"
       id="path13"
       sodipodi:nodetypes="cccccccccccccccccccc" /></g></svg>
