<?xml version="1.0" encoding="utf-8"?><!-- Uploaded to: SVG Repo, www.svgrepo.com, Generator: SVG Repo Mixer Tools -->
<svg width="800px" height="800px" viewBox="0 0 400 400" fill="none" xmlns="http://www.w3.org/2000/svg">
<path d="M142.062 127.497C156.563 80.3752 229.753 104.134 201.414 153.847C185.218 182.254 142.721 178.061 142.721 143.562" stroke="#000000" stroke-opacity="0.9" stroke-width="16" stroke-linecap="round" stroke-linejoin="round"/>
<path d="M212.414 124.647C229.332 80.2481 283.538 100.449 279.105 144.183C275.437 180.344 227.705 182.625 212.414 147.437" stroke="#000000" stroke-opacity="0.9" stroke-width="16" stroke-linecap="round" stroke-linejoin="round"/>
<path d="M91 242.095C120.822 218.335 131.975 160.067 127.489 208.16C125.598 228.446 124.639 249.545 120.324 269.381" stroke="#000000" stroke-opacity="0.9" stroke-width="16" stroke-linecap="round" stroke-linejoin="round"/>
<path d="M310 232.851C301.819 236.675 276.692 189.069 274.833 190.872C274.648 191.052 277.541 264.175 277.541 285.32" stroke="#000000" stroke-opacity="0.9" stroke-width="16" stroke-linecap="round" stroke-linejoin="round"/>
<path d="M209.555 188.545C219.936 181.145 216.025 177.66 207.875 173.744" stroke="#000000" stroke-opacity="0.9" stroke-width="16" stroke-linecap="round" stroke-linejoin="round"/>
<path d="M136.389 91.7706C146.998 77.036 146.616 55.5956 156.814 80.2373" stroke="#000000" stroke-opacity="0.9" stroke-width="16" stroke-linecap="round" stroke-linejoin="round"/>
<path d="M272.555 89.0163C279.119 68.9268 284.221 83.9124 282.391 97.4635" stroke="#000000" stroke-opacity="0.9" stroke-width="16" stroke-linecap="round" stroke-linejoin="round"/>
<path d="M175.343 137.312C174.683 135.266 175.755 133.396 175.943 131.619" stroke="#000000" stroke-opacity="0.9" stroke-width="16" stroke-linecap="round" stroke-linejoin="round"/>
<path d="M247.731 138.451C248.108 136.852 247.457 135.306 247.334 133.896" stroke="#000000" stroke-opacity="0.9" stroke-width="16" stroke-linecap="round" stroke-linejoin="round"/>
<path d="M151.141 230.496C164.928 243.592 168.97 220.987 176.121 218.161C177.55 217.599 184.502 234.228 187.955 235.691C197.708 239.816 209.073 223.597 212.279 224.652C223.221 228.255 219.141 239.416 233.975 226.6" stroke="#000000" stroke-opacity="0.9" stroke-width="16" stroke-linecap="round" stroke-linejoin="round"/>
<path d="M154.543 276.177C158.378 280.413 162.059 284.324 168.288 282.645C175.968 280.575 177.111 270.2 183.346 267.12C183.809 266.891 193.477 277.72 197.095 278.118C203.988 278.874 214.375 261.582 216.078 262.592C226.989 269.064 223.273 274.237 239.647 267.769" stroke="#000000" stroke-opacity="0.9" stroke-width="16" stroke-linecap="round" stroke-linejoin="round"/>
<path d="M168.16 309.229C167.428 316.613 166.693 324.247 163.621 330.862" stroke="#000000" stroke-opacity="0.9" stroke-width="16" stroke-linecap="round" stroke-linejoin="round"/>
<path d="M160.218 321.753C155.567 322.607 153.544 325.468 151.141 328.584" stroke="#000000" stroke-opacity="0.9" stroke-width="16" stroke-linecap="round" stroke-linejoin="round"/>
<path d="M214.709 297.844C214.791 307.616 214.137 327.121 213.518 332" stroke="#000000" stroke-opacity="0.9" stroke-width="16" stroke-linecap="round" stroke-linejoin="round"/>
<path d="M224.896 321.753C230.186 323.952 234.302 327.64 239.648 328.584" stroke="#000000" stroke-opacity="0.9" stroke-width="16" stroke-linecap="round" stroke-linejoin="round"/>
</svg>